<svg width="1200" height="600" viewBox="0 0 1200 600" fill="none" xmlns="http://www.w3.org/2000/svg">
  <defs>
    <linearGradient id="grid" x1="0" y1="0" x2="1" y2="1">
      <stop offset="0" stop-color="#1B2F57"/>
      <stop offset="1" stop-color="#264177"/>
    </linearGradient>
  </defs>
  <rect width="1200" height="600" rx="32" fill="url(#grid)"/>
  <g opacity="0.2" stroke="#FFFFFF" stroke-width="2">
    <path d="M0 120H1200"/>
    <path d="M0 240H1200"/>
    <path d="M0 360H1200"/>
    <path d="M0 480H1200"/>
    <path d="M150 0V600"/>
    <path d="M300 0V600"/>
    <path d="M450 0V600"/>
    <path d="M600 0V600"/>
    <path d="M750 0V600"/>
    <path d="M900 0V600"/>
    <path d="M1050 0V600"/>
  </g>
  <circle cx="820" cy="260" r="120" fill="#4DB848" opacity="0.15"/>
  <circle cx="350" cy="420" r="90" fill="#4DB848" opacity="0.12"/>
  <path d="M600 200C520 200 455 265 455 345C455 457 600 520 600 520C600 520 745 457 745 345C745 265 680 200 600 200Z" fill="#4DB848"/>
  <circle cx="600" cy="340" r="60" fill="#FFFFFF"/>
  <circle cx="600" cy="340" r="34" fill="#264177"/>
</svg>
