<svg width="1200" height="1200" viewBox="0 0 1200 1200" fill="none" xmlns="http://www.w3.org/2000/svg">
  <defs>
    <linearGradient id="bg" x1="0" y1="0" x2="1" y2="1">
      <stop offset="0" stop-color="#1B2F57"/>
      <stop offset="1" stop-color="#0F1E3A"/>
    </linearGradient>
    <linearGradient id="liquid" x1="0" y1="0" x2="0" y2="1">
      <stop offset="0" stop-color="#74D06F"/>
      <stop offset="1" stop-color="#4DB848"/>
    </linearGradient>
  </defs>
  <rect width="1200" height="1200" rx="64" fill="url(#bg)"/>
  <circle cx="900" cy="280" r="160" fill="#264177" opacity="0.35"/>
  <circle cx="320" cy="320" r="110" fill="#4DB848" opacity="0.25"/>
  <path d="M470 210H730" stroke="#E5E7EB" stroke-width="18" stroke-linecap="round"/>
  <path d="M520 210V360L380 980C360 1060 420 1130 500 1130H700C780 1130 840 1060 820 980L680 360V210" stroke="#E5E7EB" stroke-width="20" fill="none"/>
  <path d="M420 780H780L820 980C830 1025 800 1070 750 1070H450C400 1070 370 1025 380 980L420 780Z" fill="url(#liquid)"/>
  <path d="M470 640H730" stroke="#E5E7EB" stroke-width="12" stroke-linecap="round" opacity="0.7"/>
  <path d="M500 700H700" stroke="#E5E7EB" stroke-width="12" stroke-linecap="round" opacity="0.5"/>
  <circle cx="540" cy="520" r="18" fill="#4DB848"/>
  <circle cx="660" cy="560" r="12" fill="#74D06F"/>
</svg>
